<svg xmlns="http://www.w3.org/2000/svg" width="52" height="24" viewBox="0 0 52 24">
  <g fill="none" fill-rule="evenodd">
    <path fill="#FFF" d="M0 0H360V800H0z" transform="translate(-64 -24)"/>
    <g fill-rule="nonzero">
      <path fill="#0885C2" d="M8.235 16.367c-4.49 0-8.131-3.64-8.131-8.132 0-4.49 3.64-8.131 8.131-8.131s8.132 3.64 8.132 8.131-3.64 8.132-8.132 8.132zm0-1.43c3.701 0 6.701-3 6.701-6.702 0-3.7-3-6.7-6.7-6.7-3.702 0-6.702 3-6.702 6.7 0 3.701 3 6.701 6.701 6.701z" transform="translate(-64 -24) translate(64 24)"/>
      <path fill="#000" d="M25.854 16.367c-4.49 0-8.132-3.64-8.132-8.132 0-4.49 3.641-8.131 8.132-8.131s8.132 3.64 8.132 8.131-3.64 8.132-8.132 8.132zm0-1.43c3.701 0 6.701-3 6.701-6.702 0-3.7-3-6.7-6.7-6.7-3.702 0-6.702 3-6.702 6.7 0 3.701 3 6.701 6.701 6.701z" transform="translate(-64 -24) translate(64 24)"/>
      <path fill="#ED334E" d="M43.473 16.367c-4.491 0-8.132-3.64-8.132-8.132 0-4.49 3.64-8.131 8.132-8.131 4.491 0 8.132 3.64 8.132 8.131s-3.641 8.132-8.132 8.132zm0-1.43c3.7 0 6.701-3 6.701-6.702 0-3.7-3-6.7-6.701-6.7-3.701 0-6.701 3-6.701 6.7 0 3.701 3 6.701 6.7 6.701z" transform="translate(-64 -24) translate(64 24)"/>
      <path fill="#FBB132" d="M17.045 23.896c-4.491 0-8.132-3.64-8.132-8.131s3.64-8.132 8.132-8.132c4.49 0 8.131 3.64 8.131 8.132 0 4.49-3.64 8.131-8.131 8.131zm0-1.43c3.7 0 6.7-3 6.7-6.701 0-3.701-3-6.701-6.7-6.701-3.701 0-6.701 3-6.701 6.7 0 3.702 3 6.702 6.7 6.702z" transform="translate(-64 -24) translate(64 24)"/>
      <path fill="#1C8B3C" d="M34.664 23.896c-4.492 0-8.132-3.64-8.132-8.131s3.64-8.132 8.132-8.132c4.49 0 8.131 3.64 8.131 8.132 0 4.49-3.64 8.131-8.131 8.131zm0-1.43c3.7 0 6.7-3 6.7-6.701 0-3.701-3-6.701-6.7-6.701-3.701 0-6.702 3-6.702 6.7 0 3.702 3 6.702 6.702 6.702z" transform="translate(-64 -24) translate(64 24)"/>
      <path fill="#0885C2" d="M13.596 4.215l1.145-.859c2.168 2.892 2.168 6.867 0 9.758l-1.145-.858c1.787-2.383 1.787-5.659 0-8.041z" transform="translate(-64 -24) translate(64 24)"/>
      <path fill="#000" d="M31.215 4.215l1.145-.859c2.168 2.892 2.168 6.867 0 9.758l-1.145-.858c1.787-2.383 1.787-5.659 0-8.041zm-5.36 10.721v1.431c-1.76 0-3.472-.57-4.88-1.626l.858-1.145c1.16.87 2.571 1.34 4.021 1.34z" transform="translate(-64 -24) translate(64 24)"/>
      <path fill="#ED334E" d="M43.473 14.936v1.431c-1.76 0-3.472-.57-4.88-1.626l.86-1.145c1.16.87 2.57 1.34 4.02 1.34z" transform="translate(-64 -24) translate(64 24)"/>
    </g>
  </g>
</svg>
